<?xml version="1.0" encoding="UTF-8" standalone="no"?>
<!DOCTYPE svg PUBLIC "-//W3C//DTD SVG 1.1//EN" "http://www.w3.org/Graphics/SVG/1.1/DTD/svg11.dtd">
<svg version="1.1" xmlns="http://www.w3.org/2000/svg" xmlns:xl="http://www.w3.org/1999/xlink" xmlns:dc="http://purl.org/dc/elements/1.1/" viewBox="-1 -1 86 78" width="86" height="78">
  <defs>
    <linearGradient x1="0" x2="1" id="Gradient" gradientUnits="userSpaceOnUse">
      <stop offset="0" stop-color="#5a9fd4"/>
      <stop offset=".27850293" stop-color="#4685b7"/>
      <stop offset="1" stop-color="#306998"/>
    </linearGradient>
    <linearGradient id="Obj_Gradient" xl:href="#Gradient" gradientTransform="translate(-.68974345 .8016864) rotate(40.70757) scale(84.83073)"/>
    <linearGradient x1="0" x2="1" id="Gradient_2" gradientUnits="userSpaceOnUse">
      <stop offset="0" stop-color="#ffd43b"/>
      <stop offset=".3084571" stop-color="#ffde58"/>
      <stop offset="1" stop-color="#ffe873"/>
    </linearGradient>
    <linearGradient id="Obj_Gradient_2" xl:href="#Gradient_2" gradientTransform="translate(29.450387 14.329231) rotate(54.747333) scale(83.24017)"/>
  </defs>
  <g id="Canvas_1" stroke-dasharray="none" fill-opacity="1" stroke="none" stroke-opacity="1" fill="none">
    <title>Canvas 1</title>
    <g id="Canvas_1_Layer_1">
      <title>Layer 1</title>
      <g id="Graphic_2">
        <title>path1948</title>
        <path d="M 41.99388 6298135e-10 C 38.48897 .015221505 35.14186 .28304857 32.19675 .7499803 C 23.520817 2.1233068 21.945604 4.997797 21.945603 10.298846 L 21.945603 17.29992 L 42.447895 17.29992 L 42.447895 19.633612 L 21.945603 19.633612 L 14.25127 19.633612 C 8.292733 19.633612 3.0752682 22.842522 1.4433118 28.946967 C -.4391293 35.94408 -.5226258 40.31039 1.4433118 47.6165 C 2.900688 53.05488 6.3810995 56.92985 12.339634 56.929854 L 19.38879 56.929854 L 19.38879 48.53713 C 19.38879 42.47388 25.243858 37.125594 32.19675 37.12559 L 52.675145 37.12559 C 58.375605 37.12559 62.92629 32.92021 62.92629 27.790827 L 62.92629 10.298846 C 62.92629 5.320529 58.238976 1.5808413 52.675145 .7499803 C 49.15316 .2246811 45.49879 -.01396209 41.99388 6298135e-10 Z M 30.906395 5.631463 C 33.02414 5.631463 34.75356 7.206312 34.75356 9.142705 C 34.75356 11.072234 33.02414 12.632537 30.906395 12.632537 C 28.781057 12.632537 27.05923 11.072234 27.05923 9.142705 C 27.059228 7.206313 28.781057 5.631463 30.906395 5.631463 Z" fill="url(#Obj_Gradient)"/>
      </g>
      <g id="Graphic_3">
        <title>path1950</title>
        <path d="M 65.4831 19.633612 L 65.4831 27.790827 C 65.4831 34.115005 59.499 39.437873 52.675145 39.437874 L 32.19675 39.437874 C 26.587373 39.437874 21.945604 43.73939 21.945603 48.77264 L 21.945603 66.26462 C 21.945603 71.24294 26.777138 74.17113 32.19675 75.59939 C 38.686623 77.30918 44.91007 77.61818 52.675145 75.59939 C 57.83668 74.26039 62.92629 71.565664 62.92629 66.26462 L 62.92629 59.263546 L 42.447895 59.263546 L 42.447895 56.929854 L 62.92629 56.929854 L 73.17744 56.929854 C 79.13598 56.929854 81.35637 53.205945 83.42858 47.6165 C 85.5691 41.86225 85.47802 36.32861 83.42858 28.946967 C 81.95602 23.632186 79.14356 19.633612 73.17744 19.633612 Z M 53.9655 63.93093 C 56.09084 63.93093 57.812666 65.49123 57.812666 67.42076 C 57.812664 69.35715 56.09084 70.932 53.9655 70.932 C 51.84775 70.932 50.11833 69.35715 50.11833 67.42076 C 50.118334 65.49123 51.84775 63.93093 53.9655 63.93093 Z" fill="url(#Obj_Gradient_2)"/>
      </g>
    </g>
  </g>
</svg>
